<?xml version="1.0" encoding="UTF-8"?><svg id="_Слой_1" xmlns="http://www.w3.org/2000/svg" viewBox="0 0 121.5 23.66"><defs><style>.cls-1{fill:#ededed;}.cls-2{fill:#a1a0a0;}</style></defs><path class="cls-1" d="m9.76,14.89h-5.39l-1.03,3.08H.07L5.63,3.04h2.85l5.59,14.93h-3.27l-1.04-3.08Zm-4.56-2.49h3.73l-1.88-5.59-1.86,5.59Z"/><path class="cls-2" d="m21.43,19.25h-2.2L24.72,3.04h2.2l-5.5,16.21Z"/><path class="cls-1" d="m36.84,12.7v5.26h-3.08V3.04h5.82c1.12,0,2.11.21,2.96.62.85.41,1.51.99,1.96,1.75.46.76.69,1.62.69,2.58,0,1.46-.5,2.62-1.5,3.46-1,.84-2.39,1.27-4.16,1.27h-2.7Zm0-2.49h2.75c.81,0,1.43-.19,1.86-.57.43-.38.64-.93.64-1.64s-.22-1.32-.65-1.77c-.43-.45-1.03-.68-1.79-.7h-2.82v4.69Z"/><path class="cls-1" d="m46.52,12.31c0-1.1.21-2.08.64-2.94s1.03-1.53,1.83-2c.8-.47,1.72-.71,2.77-.71,1.5,0,2.72.46,3.67,1.37.95.92,1.47,2.16,1.58,3.73l.02.76c0,1.7-.48,3.07-1.43,4.1-.95,1.03-2.22,1.54-3.82,1.54s-2.88-.51-3.83-1.54c-.95-1.03-1.43-2.42-1.43-4.18v-.13Zm2.96.21c0,1.05.2,1.86.59,2.42s.96.84,1.7.84,1.28-.28,1.68-.83c.4-.55.6-1.43.6-2.64,0-1.03-.2-1.83-.6-2.4-.4-.57-.97-.85-1.7-.85s-1.29.28-1.68.85-.59,1.44-.59,2.62Z"/><path class="cls-1" d="m65.09,9.65c-.4-.05-.76-.08-1.07-.08-1.12,0-1.86.38-2.21,1.14v7.26h-2.96V6.87h2.8l.08,1.32c.59-1.02,1.42-1.53,2.47-1.53.33,0,.64.04.92.13l-.04,2.85Z"/><path class="cls-1" d="m70.58,4.14v2.73h1.9v2.17h-1.9v5.54c0,.41.08.7.24.88s.46.27.9.27c.33,0,.62-.02.87-.07v2.25c-.58.18-1.18.27-1.79.27-2.08,0-3.14-1.05-3.18-3.15v-5.98h-1.62v-2.17h1.62v-2.73h2.96Z"/><path class="cls-1" d="m74.93,17.96v-8.92h-1.65v-2.17h1.65v-.94c0-1.24.36-2.21,1.07-2.9.71-.69,1.71-1.03,3-1.03.41,0,.91.07,1.51.21l-.03,2.3c-.25-.06-.55-.09-.9-.09-1.12,0-1.67.52-1.67,1.57v.89h2.21v2.17h-2.21v8.92h-2.97Z"/><path class="cls-1" d="m81.19,12.31c0-1.1.21-2.08.64-2.94s1.03-1.53,1.83-2c.8-.47,1.72-.71,2.77-.71,1.5,0,2.72.46,3.67,1.37.95.92,1.47,2.16,1.58,3.73l.02.76c0,1.7-.48,3.07-1.43,4.1-.95,1.03-2.22,1.54-3.82,1.54s-2.88-.51-3.83-1.54c-.95-1.03-1.43-2.42-1.43-4.18v-.13Zm2.96.21c0,1.05.2,1.86.59,2.42s.96.84,1.7.84,1.28-.28,1.68-.83c.4-.55.6-1.43.6-2.64,0-1.03-.2-1.83-.6-2.4-.4-.57-.97-.85-1.7-.85s-1.29.28-1.68.85-.59,1.44-.59,2.62Z"/><path class="cls-1" d="m96.65,17.96h-2.97V2.21h2.97v15.75Z"/><path class="cls-1" d="m99.07,4c0-.44.15-.81.45-1.1.3-.29.7-.43,1.22-.43s.91.14,1.21.43.45.65.45,1.1-.15.82-.46,1.11c-.3.29-.71.43-1.2.43s-.9-.14-1.21-.43c-.3-.29-.46-.66-.46-1.11Zm3.15,13.97h-2.97V6.87h2.97v11.09Z"/><path class="cls-1" d="m104.2,12.31c0-1.1.21-2.08.64-2.94s1.03-1.53,1.83-2c.8-.47,1.72-.71,2.77-.71,1.5,0,2.72.46,3.67,1.37.95.92,1.47,2.16,1.58,3.73l.02.76c0,1.7-.48,3.07-1.43,4.1-.95,1.03-2.22,1.54-3.82,1.54s-2.88-.51-3.83-1.54c-.95-1.03-1.43-2.42-1.43-4.18v-.13Zm2.96.21c0,1.05.2,1.86.59,2.42s.96.84,1.7.84,1.28-.28,1.68-.83c.4-.55.6-1.43.6-2.64,0-1.03-.2-1.83-.6-2.4-.4-.57-.97-.85-1.7-.85s-1.29.28-1.68.85-.59,1.44-.59,2.62Z"/><path class="cls-1" d="m116.69,16.51c0-.47.16-.85.48-1.15.32-.29.72-.44,1.19-.44s.89.15,1.21.44c.32.29.48.68.48,1.15s-.16.84-.47,1.13c-.32.29-.72.44-1.21.44s-.88-.15-1.2-.44c-.31-.29-.47-.67-.47-1.13Z"/></svg>